<svg width="125" height="125" viewBox="0 0 125 125" fill="none" xmlns="http://www.w3.org/2000/svg">
<circle cx="62.5" cy="62.5" r="62.5" fill="#EEEFF4"/>
<circle cx="62.5" cy="62.5" r="51.5" fill="#0043FF"/>
<g clip-path="url(#clip0_833_29)">
<path d="M82 40.5625C82 45.5629 76.1131 53.0236 73.573 56.002C73.1945 56.4402 72.6367 56.6096 72.1287 56.5H62.875C61.1119 56.5 59.6875 57.9244 59.6875 59.6875C59.6875 61.4506 61.1119 62.875 62.875 62.875H72.4375C77.7168 62.875 82 67.1582 82 72.4375C82 77.7168 77.7168 82 72.4375 82H44.9055C45.7721 81.0139 46.8279 79.7488 47.8938 78.3344C48.5213 77.4977 49.1688 76.5813 49.7863 75.625H72.4375C74.2006 75.625 75.625 74.2006 75.625 72.4375C75.625 70.6744 74.2006 69.25 72.4375 69.25H62.875C57.5957 69.25 53.3125 64.9668 53.3125 59.6875C53.3125 54.4082 57.5957 50.125 62.875 50.125H66.8395C64.7477 46.9873 62.875 43.3814 62.875 40.5625C62.875 35.2832 67.1582 31 72.4375 31C77.7168 31 82 35.2832 82 40.5625ZM42.6643 79.7189C42.2857 80.1473 41.9471 80.5258 41.6582 80.8445L41.4789 81.0437L41.459 81.0238C40.8613 81.482 40.0047 81.4223 39.4668 80.8445C36.9566 78.1152 31 71.0928 31 66.0625C31 60.7832 35.2832 56.5 40.5625 56.5C45.8418 56.5 50.125 60.7832 50.125 66.0625C50.125 69.0508 48.0232 72.7363 45.792 75.8143C44.7262 77.2785 43.6305 78.6033 42.724 79.6492L42.6643 79.7189ZM43.75 66.0625C43.75 65.2171 43.4142 64.4064 42.8164 63.8086C42.2186 63.2108 41.4079 62.875 40.5625 62.875C39.7171 62.875 38.9064 63.2108 38.3086 63.8086C37.7108 64.4064 37.375 65.2171 37.375 66.0625C37.375 66.9079 37.7108 67.7186 38.3086 68.3164C38.9064 68.9142 39.7171 69.25 40.5625 69.25C41.4079 69.25 42.2186 68.9142 42.8164 68.3164C43.4142 67.7186 43.75 66.9079 43.75 66.0625ZM72.4375 43.75C73.2829 43.75 74.0936 43.4142 74.6914 42.8164C75.2892 42.2186 75.625 41.4079 75.625 40.5625C75.625 39.7171 75.2892 38.9064 74.6914 38.3086C74.0936 37.7108 73.2829 37.375 72.4375 37.375C71.5921 37.375 70.7814 37.7108 70.1836 38.3086C69.5858 38.9064 69.25 39.7171 69.25 40.5625C69.25 41.4079 69.5858 42.2186 70.1836 42.8164C70.7814 43.4142 71.5921 43.75 72.4375 43.75Z" fill="white"/>
</g>
<defs>
<clipPath id="clip0_833_29">
<rect width="51" height="51" fill="white" transform="translate(31 31)"/>
</clipPath>
</defs>
</svg>
