<svg width="37" height="37" viewBox="0 0 37 37" fill="none" xmlns="http://www.w3.org/2000/svg">
<circle cx="18.5" cy="18.5" r="18.5" fill="#0043FF"/>
<path d="M26.1666 15.6248V11.7915H21.3749V8.9165H15.6249V11.7915H10.8333V15.6248H7.95825V21.3748H10.8333V27.1248H26.1666V21.3748H29.0416V15.6248H26.1666ZM14.1874 18.0207C14.1874 17.2253 14.8295 16.5832 15.6249 16.5832C16.4203 16.5832 17.0624 17.2253 17.0624 18.0207C17.0624 18.8161 16.4203 19.4582 15.6249 19.4582C14.8295 19.4582 14.1874 18.8161 14.1874 18.0207ZM22.3333 23.2915H14.6666V21.3748H22.3333V23.2915ZM21.3749 19.4582C20.5795 19.4582 19.9374 18.8161 19.9374 18.0207C19.9374 17.2253 20.5795 16.5832 21.3749 16.5832C22.1703 16.5832 22.8124 17.2253 22.8124 18.0207C22.8124 18.8161 22.1703 19.4582 21.3749 19.4582Z" fill="white"/>
</svg>
