<svg width="37" height="37" viewBox="0 0 37 37" fill="none" xmlns="http://www.w3.org/2000/svg">
<circle cx="18.5" cy="18.5" r="18.5" fill="#0043FF"/>
<path d="M18.5001 8.9165C16.7209 8.9165 15.0146 9.62327 13.7566 10.8813C12.4985 12.1394 11.7917 13.8457 11.7917 15.6248C11.7917 17.9057 12.9322 19.9086 14.6667 21.1257V23.2915C14.6667 23.5457 14.7677 23.7894 14.9474 23.9691C15.1272 24.1489 15.3709 24.2498 15.6251 24.2498H21.3751C21.6292 24.2498 21.873 24.1489 22.0527 23.9691C22.2324 23.7894 22.3334 23.5457 22.3334 23.2915V21.1257C24.068 19.9086 25.2084 17.9057 25.2084 15.6248C25.2084 13.8457 24.5016 12.1394 23.2436 10.8813C21.9855 9.62327 20.2792 8.9165 18.5001 8.9165ZM15.6251 27.1248C15.6251 27.379 15.726 27.6228 15.9058 27.8025C16.0855 27.9822 16.3292 28.0832 16.5834 28.0832H20.4167C20.6709 28.0832 20.9147 27.9822 21.0944 27.8025C21.2741 27.6228 21.3751 27.379 21.3751 27.1248V26.1665H15.6251V27.1248Z" fill="white"/>
</svg>
