<svg width="125" height="125" viewBox="0 0 125 125" fill="none" xmlns="http://www.w3.org/2000/svg">
<circle cx="62.5" cy="62.5" r="62.5" fill="#EEEFF4"/>
<circle cx="62.5" cy="62.5" r="51.5" fill="#0043FF"/>
<path fill-rule="evenodd" clip-rule="evenodd" d="M77.1479 62.5603C80.8584 65.0791 83.4584 68.4916 83.4584 73.0416V81.1666H94.2917V73.0416C94.2917 67.1374 84.6229 63.6436 77.1479 62.5603Z" fill="#EEEFF4"/>
<path d="M56.375 59.4999C62.358 59.4999 67.2083 54.6497 67.2083 48.6666C67.2083 42.6835 62.358 37.8333 56.375 37.8333C50.3919 37.8333 45.5416 42.6835 45.5416 48.6666C45.5416 54.6497 50.3919 59.4999 56.375 59.4999Z" fill="#EEEFF4"/>
<path fill-rule="evenodd" clip-rule="evenodd" d="M72.625 59.4999C78.6105 59.4999 83.4584 54.652 83.4584 48.6666C83.4584 42.6812 78.6105 37.8333 72.625 37.8333C71.3521 37.8333 70.1605 38.1041 69.023 38.4833C71.3535 41.3655 72.625 44.96 72.625 48.6666C72.625 52.3732 71.3535 55.9677 69.023 58.8499C70.1605 59.2291 71.3521 59.4999 72.625 59.4999ZM56.375 62.2083C49.1438 62.2083 34.7084 65.8374 34.7084 73.0416V81.1666H78.0417V73.0416C78.0417 65.8374 63.6063 62.2083 56.375 62.2083Z" fill="#EEEFF4"/>
</svg>
