<svg width="37" height="37" viewBox="0 0 37 37" fill="none" xmlns="http://www.w3.org/2000/svg">
<circle cx="18.5" cy="18.5" r="18.5" fill="#0043FF"/>
<path d="M29.6301 5.49407C29.5613 5.306 29.4291 5.15428 29.261 5.07048C29.093 4.98667 28.9019 4.97724 28.7277 5.04414C28.5534 5.11104 28.4094 5.24912 28.3255 5.42966C28.2416 5.61019 28.2244 5.81928 28.2773 6.01343C29.3787 9.48886 27.1925 12.0844 25.5256 13.4745L24.8522 12.415C24.6257 12.0596 24.1195 11.7642 23.7259 11.7589L19.9463 11.7772C19.4845 11.7925 19.0352 11.9445 18.6457 12.2171L7.50832 20.7911C7.24927 20.9913 7.073 21.296 7.01812 21.6385C6.96323 21.981 7.0342 22.3335 7.21549 22.6187L12.2767 30.5692C12.6561 31.1615 13.2619 31.0899 13.8026 30.6759L24.9399 22.1006C25.26 21.852 25.6299 21.3157 25.7603 20.9057L26.9436 16.812C27.074 16.4033 26.9945 15.7798 26.7681 15.4244L26.3579 14.7788C28.5963 12.8953 30.92 9.56696 29.6301 5.49407ZM24.4479 17.675C24.2427 17.8327 24.0113 17.9444 23.7667 18.0039C23.5222 18.0633 23.2694 18.0692 23.0228 18.0214C22.7762 17.9735 22.5405 17.8728 22.3294 17.7249C22.1182 17.577 21.9357 17.3849 21.7922 17.1595C21.5017 16.7035 21.3878 16.1395 21.4756 15.5914C21.5634 15.0433 21.8457 14.5558 22.2605 14.236C22.5857 13.9858 22.974 13.8535 23.3711 13.8575C23.7681 13.8614 24.1542 14.0015 24.4752 14.2581C24.1527 14.4716 23.931 14.5966 23.8895 14.6161C23.7425 14.693 23.6237 14.8225 23.5525 14.9833C23.4814 15.144 23.462 15.3266 23.4977 15.501C23.5334 15.6754 23.622 15.8313 23.749 15.9432C23.8759 16.0551 24.0338 16.1164 24.1966 16.1169C24.2985 16.1169 24.4029 16.0909 24.5013 16.0401C24.7313 15.9203 24.9779 15.7785 25.2351 15.6106C25.2943 16.0011 25.2518 16.4021 25.1126 16.7673C24.9733 17.1326 24.7429 17.4472 24.4479 17.675Z" fill="white"/>
</svg>
