<svg width="37" height="37" viewBox="0 0 37 37" fill="none" xmlns="http://www.w3.org/2000/svg">
<circle cx="18.5" cy="18.5" r="18.5" fill="#0043FF"/>
<path d="M14.9455 30L12.9591 26.4952L9.19545 25.619L9.56136 21.5667L7 18.5L9.56136 15.4333L9.19545 11.381L12.9591 10.5048L14.9455 7L18.5 8.5881L22.0545 7L24.0409 10.5048L27.8045 11.381L27.4386 15.4333L30 18.5L27.4386 21.5667L27.8045 25.619L24.0409 26.4952L22.0545 30L18.5 28.4119L14.9455 30ZM15.8341 27.2071L18.5 26.0024L21.2182 27.2071L22.6818 24.5786L25.5568 23.8667L25.2955 20.8L27.2295 18.5L25.2955 16.1452L25.5568 13.0786L22.6818 12.4214L21.1659 9.79286L18.5 10.9976L15.7818 9.79286L14.3182 12.4214L11.4432 13.0786L11.7045 16.1452L9.77045 18.5L11.7045 20.8L11.4432 23.9214L14.3182 24.5786L15.8341 27.2071ZM17.4023 22.3881L23.3091 16.2L21.8455 14.6119L17.4023 19.2667L15.1545 16.9667L13.6909 18.5L17.4023 22.3881Z" fill="white"/>
</svg>
