<svg width="125" height="125" viewBox="0 0 125 125" fill="none" xmlns="http://www.w3.org/2000/svg">
<circle cx="62.5" cy="62.5" r="62.5" fill="#EEEFF4"/>
<circle cx="62.5" cy="62.5" r="51.5" fill="#0043FF"/>
<path d="M54.4281 57.0583L59.6125 51.9562C60.0062 51.5687 60.4656 51.375 60.9906 51.375C61.5156 51.375 61.975 51.5687 62.3687 51.9562C62.7625 52.3437 62.9594 52.807 62.9594 53.3461C62.9594 53.8851 62.7625 54.3476 62.3687 54.7333L55.8062 61.1917C55.4125 61.5792 54.9531 61.7729 54.4281 61.7729C53.9031 61.7729 53.4437 61.5792 53.05 61.1917L49.5063 57.7042C49.1125 57.3167 48.9156 56.8542 48.9156 56.3169C48.9156 55.7796 49.1125 55.3163 49.5063 54.9271C49.9 54.5396 50.3594 54.3458 50.8844 54.3458C51.4094 54.3458 51.8688 54.5396 52.2625 54.9271L54.4281 57.0583ZM84.2875 84.4417C83.8062 84.9153 83.1938 85.1521 82.45 85.1521C81.7062 85.1521 81.0938 84.9153 80.6125 84.4417L65.9125 69.975C64.6 71.0083 63.0906 71.8264 61.3844 72.4292C59.6781 73.0319 57.8625 73.3333 55.9375 73.3333C51.1687 73.3333 47.1333 71.7076 43.831 68.456C40.5287 65.2044 38.8767 61.233 38.875 56.5417C38.875 51.8486 40.527 47.8772 43.831 44.6273C47.135 41.3775 51.1705 39.7517 55.9375 39.75C60.7062 39.75 64.7418 41.3758 68.044 44.6273C71.3463 47.8789 72.9982 51.8503 73 56.5417C73 58.4361 72.6937 60.2229 72.0812 61.9021C71.4688 63.5812 70.6375 65.0667 69.5875 66.3583L84.2875 80.825C84.7687 81.2986 85.0094 81.9014 85.0094 82.6333C85.0094 83.3653 84.7687 83.9681 84.2875 84.4417ZM55.9375 68.1667C59.2188 68.1667 62.0082 67.036 64.306 64.7747C66.6037 62.5135 67.7518 59.7691 67.75 56.5417C67.75 53.3125 66.6011 50.5673 64.3034 48.306C62.0056 46.0447 59.217 44.9149 55.9375 44.9167C52.6562 44.9167 49.8667 46.0473 47.569 48.3086C45.2712 50.5699 44.1233 53.3142 44.125 56.5417C44.125 59.7708 45.2739 62.5161 47.5716 64.7773C49.8694 67.0386 52.658 68.1684 55.9375 68.1667Z" fill="#EEEFF4"/>
</svg>
