<svg width="37" height="37" viewBox="0 0 37 37" fill="none" xmlns="http://www.w3.org/2000/svg">
<circle cx="18.5" cy="18.5" r="18.5" fill="#0043FF"/>
<path d="M26.8063 18.1719V18.3255L29.3909 15.0813C30.203 14.062 30.203 12.4143 29.3909 11.395L26.4948 7.76449C25.6827 6.74517 24.3701 6.74517 23.558 7.76449L22.071 9.63093C21.9709 9.61697 21.867 9.60766 21.7632 9.60766H17.61C16.2343 9.60766 15.1033 10.9109 14.955 12.5865H14.9401V18.1719C14.9401 19.2005 15.6039 20.0336 16.4234 20.0336C17.2429 20.0336 17.9067 19.2005 17.9067 18.1719V14.0759H23.8398C25.4788 14.0759 26.8063 15.7422 26.8063 17.7995V18.1719ZM19.0933 15.5654V18.1719C19.0933 20.0243 17.8993 21.5231 16.4234 21.5231C14.9476 21.5231 13.7535 20.0243 13.7535 18.1719V12.6517C12.4223 12.9403 11.3135 14.1551 10.9353 15.826L10.3235 18.507L7.60907 21.914C6.79698 22.9334 6.79698 24.581 7.60907 25.6004L10.5052 29.2355C11.3173 30.2548 12.6299 30.2548 13.442 29.2355L14.84 27.4808C14.8734 27.4808 14.9068 27.4854 14.9401 27.4854H20.8732C21.8559 27.4854 22.6532 26.4847 22.6532 25.2513C22.6532 24.9906 22.6161 24.7393 22.553 24.5066H22.6532C23.6358 24.5066 24.4331 23.5059 24.4331 22.2724C24.4331 21.6767 24.2477 21.1368 23.9436 20.7365C24.8966 20.5037 25.616 19.4518 25.6197 18.1858V18.1672C25.616 16.7336 24.689 15.57 23.5431 15.57H19.0933V15.5654Z" fill="white"/>
</svg>
