<svg width="22" height="22" viewBox="0 0 22 22" fill="none" xmlns="http://www.w3.org/2000/svg">
<g clip-path="url(#clip0_223_101)">
<mask id="mask0_223_101" style="mask-type:luminance" maskUnits="userSpaceOnUse" x="0" y="0" width="22" height="22">
<path d="M15.5833 2.75H6.41667C5.44421 2.75 4.51157 3.13631 3.82394 3.82394C3.13631 4.51157 2.75 5.44421 2.75 6.41667V15.5833C2.75 16.5558 3.13631 17.4884 3.82394 18.1761C4.51157 18.8637 5.44421 19.25 6.41667 19.25H15.5833C16.5558 19.25 17.4884 18.8637 18.1761 18.1761C18.8637 17.4884 19.25 16.5558 19.25 15.5833V6.41667C19.25 5.44421 18.8637 4.51157 18.1761 3.82394C17.4884 3.13631 16.5558 2.75 15.5833 2.75Z" fill="white" stroke="white" stroke-width="4" stroke-linejoin="round"/>
<path d="M11 14.6668C11.9725 14.6668 12.9051 14.2805 13.5927 13.5929C14.2804 12.9053 14.6667 11.9726 14.6667 11.0002C14.6667 10.0277 14.2804 9.09507 13.5927 8.40744C12.9051 7.7198 11.9725 7.3335 11 7.3335C10.0275 7.3335 9.0949 7.7198 8.40727 8.40744C7.71964 9.09507 7.33333 10.0277 7.33333 11.0002C7.33333 11.9726 7.71964 12.9053 8.40727 13.5929C9.0949 14.2805 10.0275 14.6668 11 14.6668Z" fill="black" stroke="black" stroke-width="4" stroke-linejoin="round"/>
<path d="M16.0417 6.87484C16.2848 6.87484 16.5179 6.77826 16.6898 6.60635C16.8618 6.43444 16.9583 6.20129 16.9583 5.95817C16.9583 5.71506 16.8618 5.4819 16.6898 5.30999C16.5179 5.13808 16.2848 5.0415 16.0417 5.0415C15.7986 5.0415 15.5654 5.13808 15.3935 5.30999C15.2216 5.4819 15.125 5.71506 15.125 5.95817C15.125 6.20129 15.2216 6.43444 15.3935 6.60635C15.5654 6.77826 15.7986 6.87484 16.0417 6.87484Z" fill="black"/>
</mask>
<g mask="url(#mask0_223_101)">
<path d="M0 0H22V22H0V0Z" fill="white"/>
</g>
</g>
<defs>
<clipPath id="clip0_223_101">
<rect width="22" height="22" fill="white"/>
</clipPath>
</defs>
</svg>
