<?xml version="1.0" encoding="UTF-8"?>
<svg id="Laag_1" data-name="Laag 1" xmlns="http://www.w3.org/2000/svg" viewBox="0 0 1500 1500">
  <defs>
    <style>
      .cls-1 {
        fill: #fff;
      }
    </style>
  </defs>
  <g>
    <path class="cls-1" d="m813.01,792.54c1.56,1.56,3.12,3.12,4.69,4.69-.26-.03-.53-.08-.8-.12-20.9-3.26-39.08-13.94-51.6-29.26v26.51h-33.73v-72.55c5.44-5.46,10.91-10.92,16.35-16.38.47-.47.7-.44,1.14.01,5.41,5.43,10.83,10.83,16.24,16.26v30.22c11.06,20.33,30.17,33.61,52.26,35.1l-4.55,4.55c-.26.27-.26.71,0,.97Z"/>
    <path class="cls-1" d="m819.77,601.89c-.15.02-.3.04-.45.06-22.13,3.13-41.4,14.98-53.69,32.78-.12.16-.23.32-.34.49v-112.85c-.2.31-.41.61-.61.91-7.77,11.36-19.13,20.68-33.12,27.17v38.43l-.85-1.45-10.42-17.71-.33-.56-3.87-6.57c-1.09-1.89-2.33-3.68-3.75-5.39-.01-.02-.02-.04-.04-.06-2.65-3.18-5.83-6.05-9.48-8.57,0,0,0-.02-.02-.02-5.96-4.14-13.12-7.39-21.05-9.7,25.02-3.04,45.4-14.36,56.95-30.73.18-.24.36-.5.53-.74,6.36-9.29,9.9-20.16,9.9-32.05,0-33.96-30.16-59.91-71.72-63.42-1.65-.15-3.32-.25-5.01-.32-1.57-.06-3.15-.09-4.75-.09h-88.22v224.56h28.55v-96.24h54.53c6.62,3.06,12.22,7.92,16.49,13.48.04.05.07.09.1.14,1.09,1.42,2.08,2.87,2.98,4.35l6.78,11.9.53.94,26.7,46.83c2.56,4.47,5.82,8.94,9.88,12.95.29.28.58.56.87.83,1.21,1.15,2.5,2.26,3.86,3.3.28.23.56.44.85.65v61.86c5.36-5.35,10.74-10.73,16.1-16.09.44-.44,1.18-.44,1.64,0,5.33,5.35,10.66,10.67,15.99,15.99v-47.31c1.45-2.64,3-5.15,4.67-7.54,12.17-17.68,29.61-28.49,48.87-29.82.04,0,.09,0,.13,0,1.75-1.76,3.5-3.51,5.26-5.25.27-.28.25-.42,0-.68-1.49-1.48-2.96-2.95-4.43-4.42Zm-157.57-68.5h-54.21v-115.5h54.21c4.46,0,8.74.39,12.78,1.14.57.11,1.14.21,1.69.34,26.11,5.55,42.64,26.48,42.64,56.26,0,34.97-22.78,57.75-57.11,57.75Z"/>
    <path class="cls-1" d="m920.56,703.59c-1.78,53.08-39.79,93.04-87.34,94.51-1.91-1.9-3.82-3.82-5.73-5.72-.28-.27-.26-.41,0-.67,1.89-1.88,3.77-3.76,5.67-5.64.09-.02.18-.04.28-.06,30.06-6.12,50.17-36.19,51.87-80.26,5.25,5.24,10.48,10.48,15.73,15.72.46.45,1.2.45,1.64,0,5.96-5.97,11.92-11.93,17.89-17.88Z"/>
    <path class="cls-1" d="m838.68,607.14c.26-.26.26-.7,0-.97l-5-5.01c41.86,1.2,77.16,33.58,85.24,78.67.03.18.06.35.09.53-5.53,5.55-11.07,11.06-16.59,16.6-.44.46-.67.47-1.13,0-5.73-5.75-11.48-11.48-17.22-17.23-5.04-36.91-24.4-61.8-51.18-66.73-.02,0-.05,0-.06,0,1.95-1.96,3.9-3.91,5.84-5.86Z"/>
  </g>
  <g>
    <path class="cls-1" d="m516.37,1088.52h-21.28c-6.55-5.07-11.18-10.42-14.73-16.33l-30.28-50.67c-4.09-7.04-10.64-13.51-18-17.45h-52.92v84.45h-17.73v-197.04h72.83c38.73,0,68.19,23.93,68.19,55.73,0,29.28-24,52.08-57.01,56.3,11.73,3.66,20.73,10.13,25.64,18.58l27,45.04c5.18,8.73,12.55,17.17,18.27,21.39Zm-137.2-90.08h52.1c31.64,0,52.37-19.99,52.37-50.67s-20.73-50.67-52.37-50.67h-52.1v101.34Z"/>
    <path class="cls-1" d="m680.31,1082.89v5.63h-132.29v-197.04h129.57v5.63h-111.84v88.67h90.01v5.63h-90.01v91.48h114.56Z"/>
    <path class="cls-1" d="m867.16,1037.29c0,29.28-25.1,51.23-57.56,51.23h-88.92v-197.04h80.74c33.01,0,57.56,21.39,57.56,48.42,0,21.96-15.82,38.85-39.01,46.17,27.55,5.91,47.19,25.9,47.19,51.23Zm-128.75-140.18v87.26h55.92c27.82,0,45.83-17.17,45.83-43.63s-16.64-43.63-41.74-43.63h-60.01Zm109.93,140.74c0-29.27-18.55-47.85-45.82-47.85h-64.1v92.89h68.19c25.1,0,41.73-18.02,41.73-45.04Z"/>
    <path class="cls-1" d="m908.34,891.48h17.73v197.04h-17.73v-197.04Z"/>
    <path class="cls-1" d="m1138.56,891.48v197.04h-9.27l-139.93-186.35v186.35h-6.55v-197.04h20.46l128.75,171.43v-171.43h6.55Z"/>
  </g>
</svg>